<svg xmlns="http://www.w3.org/2000/svg" width="20" height="21" viewBox="0 0 20 21" fill="none">
  <path fill-rule="evenodd" clip-rule="evenodd" d="M10.25 2.125C7.009 2.125 4.494 4.155 4.065 6.625H6.25C6.44891 6.625 6.63968 6.70402 6.78033 6.84467C6.92098 6.98532 7 7.17609 7 7.375V14.375C7 14.5739 6.92098 14.7647 6.78033 14.9053C6.63968 15.046 6.44891 15.125 6.25 15.125H3.25C2.52065 15.125 1.82118 14.8353 1.30546 14.3195C0.789731 13.8038 0.5 13.1043 0.5 12.375V9.375C0.499873 8.77011 0.699189 8.18205 1.06708 7.70189C1.43497 7.22174 1.95091 6.87627 2.535 6.719C2.917 3.215 6.324 0.625 10.25 0.625C14.176 0.625 17.583 3.215 17.965 6.719C18.5491 6.87627 19.065 7.22174 19.4329 7.70189C19.8008 8.18205 20.0001 8.77011 20 9.375V12.375C20.0002 12.9817 19.7997 13.5715 19.4299 14.0524C19.06 14.5333 18.5414 14.8785 17.955 15.034C17.796 16.1687 17.2323 17.2077 16.3677 17.9595C15.503 18.7113 14.3958 19.1252 13.25 19.125H12.105C11.9309 19.5553 11.6127 19.9116 11.2047 20.1329C10.7967 20.3543 10.3245 20.4268 9.86892 20.3382C9.41333 20.2495 9.00276 20.0052 8.70757 19.647C8.41238 19.2888 8.25095 18.8391 8.25095 18.375C8.25095 17.9109 8.41238 17.4612 8.70757 17.103C9.00276 16.7448 9.41333 16.5005 9.86892 16.4118C10.3245 16.3232 10.7967 16.3957 11.2047 16.6171C11.6127 16.8384 11.9309 17.1947 12.105 17.625H13.25C13.9817 17.6252 14.692 17.3784 15.266 16.9247C15.84 16.471 16.2442 15.8369 16.413 15.125H14.25C14.0511 15.125 13.8603 15.046 13.7197 14.9053C13.579 14.7647 13.5 14.5739 13.5 14.375V7.375C13.5 7.17609 13.579 6.98532 13.7197 6.84467C13.8603 6.70402 14.0511 6.625 14.25 6.625H16.435C16.006 4.155 13.491 2.125 10.25 2.125ZM3.25 8.125C2.56 8.125 2 8.685 2 9.375V12.375C2 13.065 2.56 13.625 3.25 13.625H5.5V8.125H3.25ZM18.5 9.375C18.5 8.685 17.94 8.125 17.25 8.125H15V13.625H17.25C17.94 13.625 18.5 13.065 18.5 12.375V9.375Z" fill="black"/>
</svg>