<svg xmlns="http://www.w3.org/2000/svg" width="140" height="47" viewBox="0 0 140 47" fill="none">
  <path d="M0.613028 24.0383H46.615" stroke="#4F755B" stroke-miterlimit="10"/>
  <path d="M3.20444 18.5276H44.0325" stroke="#4F755B" stroke-miterlimit="10"/>
  <path d="M3.42572 13.0168H43.8062" stroke="#4F755B" stroke-miterlimit="10"/>
  <path d="M9.41391 7.50586H37.8215" stroke="#4F755B" stroke-miterlimit="10"/>
  <path d="M46.504 23.605C46.504 25.5771 44.5178 27.2556 44.0283 29.0739C43.5387 30.8922 44.3919 33.3959 43.4408 35.0463C42.4897 36.6968 39.9161 37.1864 38.5593 38.5431C37.2026 39.8998 36.741 42.4595 35.0626 43.4246C33.3841 44.3897 30.9644 43.5085 29.0901 44.012C27.2159 44.5155 25.5934 46.4877 23.6212 46.4877C21.6491 46.4877 19.9706 44.5016 18.1523 44.012C16.334 43.5225 13.8303 44.3757 12.1799 43.4246C10.5294 42.4734 10.0398 39.8998 8.6831 38.5431C7.32636 37.1864 4.76674 36.7248 3.80164 35.0463C2.83654 33.3679 3.71772 30.9482 3.21419 29.0739C2.71066 27.1996 0.738487 25.5771 0.738487 23.605" stroke="#4F755B" stroke-miterlimit="10"/>
  <path d="M46.504 23.605C46.504 25.5771 44.5178 27.2556 44.0283 29.0739C43.5387 30.8922 44.3919 33.3959 43.4408 35.0463C42.4897 36.6968 39.9161 37.1864 38.5593 38.5431C37.2026 39.8998 36.741 42.4595 35.0626 43.4246C33.3841 44.3897 30.9644 43.5085 29.0901 44.012C27.2159 44.5155 25.5934 46.4877 23.6212 46.4877C21.6491 46.4877 19.9706 44.5016 18.1523 44.012C16.334 43.5225 13.8303 44.3757 12.1799 43.4246C10.5294 42.4734 10.0398 39.8998 8.6831 38.5431C7.32636 37.1864 4.76674 36.7248 3.80164 35.0463C2.83654 33.3679 3.71772 30.9482 3.21419 29.0739C2.71066 27.1996 0.738487 25.5771 0.738487 23.605" stroke="#4F755B" stroke-miterlimit="10"/>
  <path d="M46.5049 23.6049C46.5049 21.6327 44.5187 19.9543 44.0292 18.136C43.5396 16.3177 44.3928 13.814 43.4417 12.1635C42.4906 10.5131 39.917 10.0235 38.5603 8.66679C37.2035 7.31005 36.742 4.75043 35.0635 3.78532C33.3851 2.82022 30.9653 3.7014 29.0911 3.19787C27.2168 2.69434 25.5943 0.722168 23.6221 0.722168C21.65 0.722168 19.9715 2.70832 18.1532 3.19787C16.3349 3.68741 13.8312 2.83421 12.1808 3.78532C10.5303 4.73644 10.0408 7.31005 8.68403 8.66679C7.32729 10.0235 4.76767 10.4851 3.80256 12.1635C2.83746 13.842 3.71864 16.2617 3.21511 18.136C2.71158 20.0102 0.73941 21.6327 0.73941 23.6049" stroke="#4F755B" stroke-miterlimit="10"/>
  <path d="M38.5608 23.6816C38.5608 24.9684 37.26 26.0734 36.9383 27.2483C36.6166 28.4232 37.1761 30.0737 36.5607 31.1507C35.9452 32.2277 34.2528 32.5494 33.3716 33.4306C32.4904 34.3118 32.1827 35.9902 31.0918 36.6196C30.0008 37.249 28.4202 36.6756 27.1894 36.9973C25.9585 37.319 24.9095 38.6198 23.6227 38.6198C22.3359 38.6198 21.2309 37.319 20.056 36.9973C18.8811 36.6756 17.2306 37.235 16.1536 36.6196C15.0766 36.0042 14.7549 34.3118 13.8738 33.4306C12.9926 32.5494 11.3141 32.2417 10.6847 31.1507C10.0553 30.0597 10.6288 28.4792 10.3071 27.2483C9.98536 26.0175 8.68457 24.9684 8.68457 23.6816" stroke="#4F755B" stroke-miterlimit="10"/>
  <path d="M31.2608 23.6816C31.2608 24.339 30.5894 24.8985 30.4355 25.5139C30.2817 26.1294 30.5614 26.9546 30.2397 27.5141C29.918 28.0736 29.0648 28.2274 28.6032 28.675C28.1417 29.1226 27.9878 29.9898 27.4423 30.3115C26.8968 30.6332 26.0716 30.3395 25.4422 30.5073C24.8128 30.6751 24.2673 31.3325 23.6099 31.3325C22.9525 31.3325 22.393 30.6612 21.7776 30.5073C21.1622 30.3534 20.3369 30.6332 19.7774 30.3115C19.218 29.9898 19.0641 29.1366 18.6165 28.675C18.1689 28.2134 17.3017 28.0596 16.98 27.5141C16.6583 26.9686 16.9521 26.1434 16.7842 25.5139C16.6164 24.8845 15.959 24.339 15.959 23.6816" stroke="#4F755B" stroke-miterlimit="10"/>
  <path d="M27.4719 24.0383C27.4719 26.2063 25.7235 27.9547 23.5555 27.9547C21.3876 27.9547 19.6392 26.2063 19.6392 24.0383" stroke="#4F755B" stroke-miterlimit="10"/>
  <path d="M60.4579 21.0385C60.4579 19.7796 60.4299 18.5628 60.388 17.3459C60.346 16.143 60.29 14.9122 60.2341 13.6533C60.7796 13.6953 61.3251 13.7233 61.8566 13.7512C62.3881 13.7792 62.9336 13.7932 63.4791 13.7932C64.0246 13.7932 64.5701 13.7652 65.1016 13.7233C65.6331 13.6813 66.1786 13.6533 66.7241 13.6533C67.5213 13.6533 68.2766 13.7233 69.004 13.8771C69.7313 14.031 70.3607 14.2827 70.8922 14.6324C71.4237 14.9821 71.8573 15.4437 72.179 16.0171C72.4867 16.5906 72.6546 17.3039 72.6546 18.1571C72.6546 19.0663 72.4448 19.8496 72.0391 20.507C71.6335 21.1643 71.13 21.6958 70.5425 22.1294C69.9551 22.563 69.3257 22.8847 68.6543 23.1225C67.9829 23.3603 67.3675 23.5142 66.822 23.5981C67.0458 23.8778 67.3675 24.2834 67.7591 24.801C68.1647 25.3185 68.5983 25.878 69.1019 26.4934C69.6054 27.1088 70.1089 27.7522 70.6404 28.4236C71.1719 29.095 71.6895 29.7384 72.179 30.3538C72.6685 30.9692 73.1441 31.5287 73.5777 32.0462C74.0113 32.5637 74.361 32.9554 74.6267 33.2072C74.347 33.1652 74.0533 33.1512 73.7735 33.1512H72.0951C71.8153 33.1512 71.5356 33.1652 71.2698 33.2072C70.9901 32.8015 70.5565 32.2141 69.9691 31.4168C69.3956 30.6196 68.7522 29.7663 68.0528 28.8572C67.3535 27.948 66.6402 27.0389 65.8988 26.1437C65.1715 25.2485 64.5001 24.4793 63.8847 23.8498H62.8077V25.9339C62.8077 27.1927 62.8357 28.4236 62.8776 29.6405C62.9196 30.8573 62.9756 32.0462 63.0315 33.2211C62.5979 33.1792 62.1223 33.1652 61.6328 33.1652C61.1433 33.1652 60.6677 33.1792 60.2341 33.2211C60.29 32.0462 60.346 30.8433 60.388 29.6405C60.4299 28.4236 60.4579 27.1927 60.4579 25.9339V21.0385ZM62.7937 22.661C63.0595 22.7169 63.3532 22.7589 63.6609 22.7728C63.9686 22.7868 64.3183 22.8008 64.696 22.8008C65.2834 22.8008 65.8988 22.7309 66.5283 22.605C67.1577 22.4791 67.7451 22.2413 68.2766 21.9057C68.8081 21.57 69.2557 21.1224 69.6054 20.5629C69.9551 20.0034 70.1369 19.2901 70.1369 18.4369C70.1369 17.6956 69.997 17.0801 69.7173 16.6046C69.4375 16.115 69.0879 15.7374 68.6543 15.4576C68.2207 15.1779 67.7451 14.9821 67.2276 14.8702C66.7101 14.7723 66.2066 14.7163 65.717 14.7163C65.0456 14.7163 64.5001 14.7163 64.0665 14.7583C63.6329 14.7863 63.2553 14.8142 62.9616 14.8562C62.9196 15.9052 62.8916 16.9403 62.8497 17.9613C62.8077 18.9824 62.7937 20.0034 62.7937 21.0385V22.661Z" fill="black"/>
  <path d="M76.0661 26.8991C76.0661 24.5632 76.6256 22.7309 77.7305 21.4022C78.8355 20.0734 80.458 19.416 82.584 19.416C83.5911 19.416 84.4583 19.5699 85.1856 19.8776C85.9129 20.1853 86.5284 20.6049 87.0179 21.1364C87.5074 21.6679 87.8711 22.2694 88.1089 22.9687C88.3467 23.6681 88.4586 24.4234 88.4586 25.2206C88.4586 25.4164 88.4586 25.5983 88.4446 25.7801C88.4306 25.9619 88.4166 26.1438 88.4026 26.3396C87.3816 26.3256 86.3605 26.2976 85.3534 26.2836C84.3464 26.2696 83.3253 26.2557 82.3043 26.2557C81.6749 26.2557 81.0594 26.2557 80.444 26.2836C79.8286 26.3116 79.1992 26.3256 78.5837 26.3396C78.5698 26.4375 78.5558 26.5774 78.5558 26.7732V27.1368C78.5558 27.8782 78.6677 28.5635 78.8775 29.2209C79.1013 29.8643 79.409 30.4238 79.8286 30.8854C80.2482 31.3469 80.7517 31.7246 81.3672 31.9903C81.9686 32.2701 82.6819 32.4099 83.4792 32.4099C83.8568 32.4099 84.2485 32.354 84.6401 32.2561C85.0457 32.1582 85.4234 32.0043 85.801 31.8225C86.1787 31.6407 86.5423 31.4309 86.864 31.1791C87.1997 30.9273 87.4795 30.6616 87.7312 30.3818L87.8711 30.4657L87.7033 31.8644C87.1298 32.326 86.4304 32.7037 85.5772 33.0254C84.738 33.3471 83.8568 33.5149 82.9477 33.5149C81.9266 33.5149 80.9895 33.3611 80.1503 33.0394C79.3111 32.7316 78.5697 32.2701 77.9543 31.6686C77.3389 31.0672 76.8633 30.3678 76.5276 29.5426C76.192 28.7314 76.0241 27.8502 76.0241 26.8991H76.0661ZM82.64 20.3252C81.9406 20.3252 81.3392 20.493 80.8636 20.8147C80.3741 21.1364 79.9824 21.542 79.6747 22.0316C79.367 22.5211 79.1292 23.0526 78.9614 23.6261C78.7935 24.1996 78.6956 24.7451 78.6677 25.2626C79.2551 25.2766 79.8705 25.3045 80.5 25.3185C81.1294 25.3325 81.7588 25.3465 82.3602 25.3465C82.9617 25.3465 83.6191 25.3465 84.2625 25.3185C84.9059 25.3045 85.5353 25.2766 86.1367 25.2626C86.1367 24.7451 86.0948 24.2136 86.0108 23.6401C85.9269 23.0666 85.7591 22.5351 85.4933 22.0456C85.2416 21.556 84.8779 21.1504 84.4303 20.8147C83.9827 20.479 83.3813 20.3252 82.64 20.3252Z" fill="black"/>
  <path d="M107.342 16.1151C106.908 15.7794 106.447 15.4717 105.915 15.2199C105.398 14.9681 104.81 14.7583 104.181 14.5905C103.538 14.4226 102.866 14.3527 102.139 14.3527C100.964 14.3527 99.8729 14.5345 98.8519 14.8982C97.8308 15.2619 96.9497 15.8073 96.2083 16.5626C95.467 17.3179 94.8656 18.2551 94.446 19.416C94.0124 20.5629 93.8026 21.9197 93.8026 23.5002C93.8026 24.8849 93.9984 26.1437 94.376 27.2627C94.7537 28.3817 95.3132 29.3328 96.0405 30.1021C96.7678 30.8713 97.663 31.4588 98.712 31.8784C99.761 32.298 100.95 32.5078 102.279 32.5078C102.67 32.5078 103.09 32.4938 103.538 32.4519C103.971 32.4099 104.391 32.354 104.81 32.284C105.216 32.2141 105.594 32.1162 105.943 32.0043C106.293 31.8924 106.587 31.7525 106.838 31.5987C106.852 31.0252 106.866 30.4657 106.88 29.8923C106.88 29.3188 106.894 28.7453 106.894 28.1579C106.894 27.5005 106.88 26.8291 106.852 26.1717C106.824 25.5143 106.797 24.8709 106.755 24.2695C107.23 24.3674 107.678 24.4094 108.125 24.4094C108.335 24.4094 108.545 24.4093 108.755 24.3814C108.964 24.3674 109.16 24.3254 109.356 24.2695C109.314 24.7031 109.286 25.3884 109.272 26.3396C109.258 27.2907 109.244 28.5215 109.244 30.0601C109.244 30.4377 109.244 30.8294 109.258 31.207C109.258 31.5987 109.258 31.9763 109.258 32.354C108.867 32.5078 108.363 32.6617 107.762 32.8295C107.16 32.9974 106.531 33.1233 105.859 33.2352C105.188 33.3331 104.517 33.431 103.845 33.5149C103.174 33.5988 102.558 33.6408 102.013 33.6408C100.321 33.6408 98.7959 33.431 97.4392 33.0253C96.0825 32.6197 94.9355 31.9903 93.9844 31.1371C93.0333 30.2839 92.306 29.2209 91.7885 27.9481C91.2709 26.6752 91.0192 25.2066 91.0192 23.5422C91.0192 21.8777 91.2849 20.493 91.8164 19.2342C92.3479 17.9753 93.1032 16.8983 94.0683 16.0311C95.0334 15.1639 96.2083 14.4926 97.5791 14.045C98.9498 13.5834 100.474 13.3596 102.153 13.3596C103.118 13.3596 103.985 13.4156 104.726 13.5135C105.482 13.6254 106.139 13.7513 106.713 13.9191C107.286 14.0869 107.804 14.2688 108.237 14.4646C108.671 14.6604 109.062 14.8283 109.398 15.0101C109.244 15.2758 109.104 15.6115 108.978 16.0311C108.853 16.4507 108.769 16.8424 108.741 17.1921H108.405C108.125 16.8564 107.762 16.5067 107.342 16.171V16.1151Z" fill="black"/>
  <path d="M112.449 26.8991C112.449 24.5632 113.008 22.7309 114.113 21.4022C115.218 20.0734 116.841 19.416 118.967 19.416C119.974 19.416 120.841 19.5699 121.568 19.8776C122.296 20.1853 122.911 20.6049 123.4 21.1364C123.89 21.6679 124.254 22.2694 124.491 22.9687C124.729 23.6681 124.841 24.4234 124.841 25.2206C124.841 25.4164 124.841 25.5983 124.827 25.7801C124.813 25.9619 124.799 26.1438 124.785 26.3396C123.764 26.3256 122.743 26.2976 121.736 26.2836C120.729 26.2696 119.708 26.2557 118.687 26.2557C118.057 26.2557 117.442 26.2557 116.827 26.2836C116.211 26.3116 115.582 26.3256 114.966 26.3396C114.952 26.4375 114.938 26.5774 114.938 26.7732V27.1368C114.938 27.8782 115.05 28.5635 115.26 29.2209C115.484 29.8643 115.792 30.4238 116.211 30.8854C116.631 31.3469 117.134 31.7246 117.75 31.9903C118.351 32.2701 119.065 32.4099 119.862 32.4099C120.239 32.4099 120.631 32.354 121.023 32.2561C121.428 32.1582 121.806 32.0043 122.184 31.8225C122.561 31.6407 122.925 31.4309 123.247 31.1791C123.582 30.9273 123.862 30.6616 124.114 30.3818L124.254 30.4657L124.086 31.8644C123.512 32.326 122.813 32.7037 121.96 33.0254C121.121 33.3471 120.239 33.5149 119.33 33.5149C118.309 33.5149 117.372 33.3611 116.533 33.0394C115.694 32.7316 114.952 32.2701 114.337 31.6686C113.721 31.0672 113.246 30.3678 112.91 29.5426C112.575 28.7314 112.407 27.8502 112.407 26.8991H112.449ZM119.023 20.3252C118.323 20.3252 117.722 20.493 117.246 20.8147C116.757 21.1364 116.365 21.542 116.057 22.0316C115.75 22.5211 115.512 23.0526 115.344 23.6261C115.176 24.1996 115.078 24.7451 115.05 25.2626C115.638 25.2766 116.253 25.3045 116.883 25.3185C117.512 25.3325 118.141 25.3465 118.743 25.3465C119.344 25.3465 120.002 25.3465 120.645 25.3185C121.288 25.3045 121.918 25.2766 122.519 25.2626C122.519 24.7451 122.477 24.2136 122.393 23.6401C122.31 23.0666 122.142 22.5351 121.876 22.0456C121.624 21.556 121.26 21.1504 120.813 20.8147C120.365 20.479 119.764 20.3252 119.023 20.3252Z" fill="black"/>
  <path d="M136.296 21.9896C135.75 21.2622 134.981 20.8986 134.016 20.8986C132.687 20.8986 131.708 21.3042 131.093 22.1294C130.477 22.9407 130.17 24.0876 130.17 25.5702V27.99C130.17 28.8432 130.184 29.7383 130.212 30.6755C130.239 31.6126 130.295 32.4658 130.393 33.2211C129.96 33.1792 129.526 33.1652 129.107 33.1652C128.687 33.1652 128.267 33.1792 127.82 33.2211C127.918 32.4658 127.974 31.6126 128.002 30.6755C128.03 29.7383 128.044 28.8432 128.044 27.99V25.0247C128.044 24.1715 128.044 23.2764 128.002 22.3392C127.96 21.4021 127.918 20.5209 127.82 19.7097C128.351 19.8076 128.785 19.8495 129.107 19.8495C129.26 19.8495 129.428 19.8495 129.61 19.8076C129.792 19.7656 130.002 19.7516 130.253 19.7097C130.198 20.465 130.17 21.2343 130.17 21.9896H130.225C130.757 21.1783 131.386 20.5489 132.128 20.1013C132.869 19.6537 133.75 19.4299 134.771 19.4299C135.303 19.4299 135.834 19.4999 136.38 19.6537C136.925 19.8076 137.415 20.0733 137.848 20.437C138.282 20.8007 138.646 21.3042 138.911 21.9476C139.191 22.591 139.317 23.4022 139.317 24.3813C139.317 25.1926 139.303 26.0318 139.261 26.899C139.219 27.7662 139.205 28.6753 139.205 29.6404V31.4867C139.205 31.7944 139.205 32.0882 139.205 32.3819C139.205 32.6756 139.233 32.9554 139.247 33.2211C138.869 33.1792 138.464 33.1652 138.058 33.1652C137.653 33.1652 137.275 33.1792 136.897 33.2211C136.939 32.228 136.981 31.221 137.023 30.1719C137.065 29.1229 137.093 28.0599 137.093 26.9549V25.2205C137.093 23.7939 136.813 22.7169 136.268 21.9896H136.296Z" fill="black"/>
  <path d="M109.357 25.0666C108.783 25.0666 105.86 24.9267 105.273 24.9267C104.615 24.9267 103.944 24.9407 103.286 24.9687C102.629 24.9966 101.986 25.0246 101.384 25.0666C101.692 24.1714 101.384 23.4441 101.384 23.4441C101.818 23.4861 102.503 23.514 103.454 23.528C104.391 23.542 105.636 23.556 107.175 23.556C107.553 23.556 107.944 23.556 108.322 23.542C108.713 23.542 109.091 23.542 109.469 23.542L109.371 25.0806L109.357 25.0666Z" fill="black"/>
</svg>